<?xml version="1.0" encoding="UTF-8" standalone="no"?>
<svg
   id="svg5"
   width="197.91mm"
   height="51.925mm"
   version="1.1"
   viewBox="0 0 197.91 51.925"
   xml:space="preserve"
   sodipodi:docname="header.svg"
   inkscape:version="1.2.1 (9c6d41e410, 2022-07-14)"
   xmlns:inkscape="http://www.inkscape.org/namespaces/inkscape"
   xmlns:sodipodi="http://sodipodi.sourceforge.net/DTD/sodipodi-0.dtd"
   xmlns="http://www.w3.org/2000/svg"
   xmlns:svg="http://www.w3.org/2000/svg"><sodipodi:namedview
     id="namedview12"
     pagecolor="#fffbf3"
     bordercolor="#000000"
     borderopacity="0.25"
     inkscape:showpageshadow="2"
     inkscape:pageopacity="0"
     inkscape:pagecheckerboard="0"
     inkscape:deskcolor="#d1d1d1"
     inkscape:document-units="mm"
     showgrid="false"
     inkscape:zoom="3.7434749"
     inkscape:cx="386.93995"
     inkscape:cy="161.08028"
     inkscape:window-width="1260"
     inkscape:window-height="1363"
     inkscape:window-x="26"
     inkscape:window-y="23"
     inkscape:window-maximized="0"
     inkscape:current-layer="svg5" /><defs
     id="defs2"><linearGradient
       id="linearGradient29686"
       x1="109.11"
       x2="109.11"
       y1="64.385"
       y2="111.1"
       gradientUnits="userSpaceOnUse"><stop
         id="stop29680"
         stop-color="#97bec5"
         offset="0" /><stop
         id="stop29682"
         stop-color="#97bec5"
         stop-opacity="0"
         offset="1" /></linearGradient></defs><g
     id="layer1"
     transform="translate(-7.1475 -63.949)"><path
       id="path21112"
       d="m108.96 63.949-7.1768 21.083-1.6345 1.7523-9.2475 11.17 3.5176-9.8562-5.4214 3.0654-4.6013 12.177-3.2153-4.4344-4.3966 2.141-3.5605-5.241-3.0406 4.1667-2.6288-6.6249-1.819 0.96273-5.2266-8.401-2.0547 10.184-1.4876-2.5722-1.6207 1.6607 0.85111-3.4117-2.8949 2.8773-2.6794-2.6753-4.0333 14.948-1.5291-2.4381-7.043 10.463-4.3434-0.0253h-0.01085l15.473-22.002-7.4042-9.2646-7.614 27.443-6.4043-7.9597 8.569-13.997-7.9148 5.9226-3.9005-3.098-2.6913 4.6436-1.0862-1.5493-1.248 3.1176-5.0229-9.85-1.9601 2.8649-5.1864-11.285-0.12535 35.96 197.88 7e-3 0.024-28.065-8.0073 13.596-1.3684-2.6148 3.6923-6.2461-5.4942 3.0918-0.9927-1.1591-10.032 20.464-7.7768 0.0376 13.257-15.767-9.0005-5.7878-2.898 2.9642-3.0122-4.6163-1.3105 2.5771-5.2167-9.2356-2.6278 14.383-2.3296 2.2846-1.0547-4.1584-4.376 11.61-1.9487-1.9438 8.7116-18.062-2.9714 4.2623-2.1523-1.5534-3.5776 5.4405-1.6976-3.1807-6.0374 16.544-1.8461-6.2884-4.2552 1.4809 9.72-9.9898-4.0108 0.11701-9.3824-6.69-1.8593 5.8363-8.3778-11.164-4.2395 2.8985-13.62-22.99zm22.832 29.496-3.8659 13.014-2.4469-6.1986zm-69.019 1.3064-2.9011 9.4852-1.0263 2.481-2.2149-3.1988-1.8231 0.57257zm76.904 2.7647-3.2814 10.746h-2e-3l-0.14883 0.15141-6.7599 6.549-0.96632-4.6307 11.158-12.816z"
       fill="#dfe8e5" /><path
       id="path28298"
       d="m108.96 63.949-7.1768 21.083 21.503 22.512-32.995-8.4067 4.1279-11.039-5.4214 3.0654-6.6714 18.081-6.2511-0.35648 5.1059-9.9825-4.3966 2.141-3.5605-5.241-3.0406 4.1667-2.6288-6.6249-1.819 0.96273-5.2266-8.401-2.6434 13.143-7.2428-7.0798-4.0333 14.948-1.5291-2.4381-7.043 10.463-4.3434-0.0253h-0.01085l15.473-22.002-7.4042-9.2646-7.614 27.443-13.428-16.038-1.248 3.1176-5.0229-9.85-1.9601 2.8649-5.1864-11.285-0.12535 35.96 197.88 7e-3 0.024-28.065-8.0073 13.596-1.3684-2.6148 3.6923-6.2461-5.4942 3.0918-0.9927-1.1591-10.032 20.464-7.7768 0.0376 10.231-12.168-6.0428-2.2475-2.83-4.1748-3.0122-4.6163-1.3105 2.5771-5.2167-9.2356-2.6278 14.383-2.3296 2.2846-1.0547-4.1584-4.376 11.61-1.9487-1.9438 4.7345-9.8163-2.2152-3.9121-2.5089 3.8153-1.6976-3.1807-6.0374 16.544-1.8461-6.2884-4.2552 1.4809 9.72-9.9898-10.383 1.8637-0.76155-0.35609-4.1082-2.2443-3.1429-1.9381-5.2349-9.2261-4.2395 2.8985-13.62-22.99zm22.832 29.496-3.8659 13.014-2.4469-6.1986zm-69.019 1.3064-2.9011 9.4852-1.0263 2.481-2.2149-3.1988-1.8231 0.57257zm76.904 2.7647-3.2814 10.746h-2e-3l-0.14883 0.15141-6.7599 6.549-0.96632-4.6307 11.158-12.816z"
       fill="url(#linearGradient29686)" /><path
       id="path16073"
       d="m12.622 115.59c-4.6757-0.044-5.4596-0.0925-5.4596-0.3382 0-0.24797 0.87909-0.28689 6.4803-0.28689 5.582 0 6.4957-0.0402 6.5916-0.28989 0.14472-0.37713 2.2164-0.42424 2.1247-0.0483-0.03239 0.13287-0.02241 0.17635 0.02217 0.0966 0.12109-0.21652 1.5949-0.17513 1.5949 0.0448 0 0.1209 3.4881 0.20854 9.6147 0.24158l9.6147 0.0518-0.126-2.9934 1.754 0.1245 1.754 0.12451v-0.80199c0-0.58403 0.07878-0.80198 0.28989-0.80198 0.20184 0 0.28989 0.20316 0.28989 0.66889v0.66889l3.3821 0.1116 0.05678 1.4011 0.05678 1.4012h4.0838l-0.07319-1.4495-0.0732-1.4495h3.1963v-0.57979c0-0.38652 0.09663-0.57978 0.28989-0.57978 0.19326 0 0.28989 0.19326 0.28989 0.57978v0.57979h2.9569c2.0421 0 3.0286 0.0717 3.1888 0.23191 0.1313 0.1313 0.23191 0.76016 0.23191 1.4495v1.2176h4.2852l-0.05466-1.4978-0.05467-1.4978 1.2458-1.1861c1.0544-1.0038 1.372-1.1977 2.0672-1.2613l0.82136-0.0752v0.82635c0 0.77621-0.10504 0.9366-1.7313 2.6437l-1.7313 1.8173-0.06632-1.3824-0.06632-1.3824-0.0384 1.4978c-0.02112 0.82378 0.03708 1.4978 0.12933 1.4978s0.97278-0.82092 1.9567-1.8243l1.789-1.8243 0.0242-1.4097c0.02021-1.1771 0.07999-1.4205 0.36241-1.4753 0.25149-0.0488 0.33821 0.0619 0.33821 0.43166v0.49733h5.567l1.6615 1.8101c1.6357 1.782 1.6615 1.8254 1.6615 2.8023v0.99224h4.8809l-0.1236-0.77305c-0.12123-0.75814-0.11239-0.77305 0.45845-0.77305 0.53638 0 0.58207-0.0531 0.58207-0.67641v-0.67642h3.2854v-0.69252c0-0.87321 0.45622-0.80667 0.54371 0.0793l0.06056 0.61322h3.2417l0.05796-1.0652c0.03188-0.58584 0.14493-1.0627 0.25122-1.0596 0.11297 3e-3 0.16577 0.44574 0.12709 1.0652-0.06042 0.96746-0.031 1.0596 0.33821 1.0596 0.33331 0 0.40438 0.11889 0.40438 0.67642 0 0.62273 0.04602 0.67641 0.57978 0.67641 0.54757 0 0.57978 0.043 0.57978 0.77305v0.77304h14.495v-0.74693c0-0.67753 0.14607-0.89241 1.5721-2.3127l1.5721-1.5658 1.2449 1.093c0.68469 0.60112 1.4122 1.3057 1.6167 1.5657 0.20452 0.26 0.37186 0.38752 0.37186 0.28337 0-0.10416-0.17393-0.34678-0.38652-0.53917s-0.38652-0.42329-0.38652-0.51311c0-0.0898 1.0812-0.16331 2.4026-0.16331h2.4026l0.44101 0.6281c0.24256 0.34545 0.50939 0.65709 0.59295 0.69252 0.26484 0.1123 0.16388 0.41873-0.13797 0.41873-0.19326 0-0.28989 0.19326-0.28989 0.57979v0.57978h11.569l-0.17647-0.6153c-0.21311-0.74306-0.17433-0.79665 0.41822-0.57797 0.2539 0.0937 0.7008 0.22824 0.99311 0.29898 0.50346 0.12183 0.53147 0.0928 0.53147-0.55149v-0.68009h-1.5575c-0.98912 0-1.5139-0.0705-1.438-0.19327 0.0657-0.10629 0.8055-0.19326 1.644-0.19326h1.5246l0.142-2.0292 0.0357 1.0146 0.0358 1.0146h2.905c3.226 0 3.465 0.10038 2.8384 1.1921-0.36128 0.6295-0.26615 0.66148 0.72985 0.24532 0.95652-0.39965 1.3155-0.26299 1.0618 0.40423-0.10511 0.27645-0.1911 0.54045-0.1911 0.58668 0 0.0462 1.1523 0.0834 2.5607 0.0827l2.5607-1e-3 0.95423-1.1582c0.86182-1.046 1.0256-1.1582 1.691-1.1582h0.7368v-0.85386c0-0.94509 0.14456-1.4653 0.4072-1.4653 0.0949 0 0.17259 0.5218 0.17259 1.1596 0 0.77432 0.0772 1.1596 0.23237 1.1596 0.12781 0 0.51933 0.27813 0.87006 0.61806 0.48097 0.46618 0.69235 0.56339 0.86016 0.39557 0.36952-0.36951 0.93633 0.0739 0.93633 0.73253v0.57298h6.2096l-0.0424-1.4519c-0.0233-0.79855 0.0113-1.5056 0.0769-1.5712 0.0656-0.0656 1.5766-0.10299 3.3577-0.0831l3.2384 0.0363 0.99716 0.90685c0.54843 0.49876 0.99735 0.99381 0.99759 1.1001 1.9e-4 0.10629 0.0107 0.38893 0.0233 0.62809l0.0229 0.43484h16.717c16.636 0 16.717 2e-3 16.717 0.38984v0.38984l-93.49-0.0516c-51.42-0.0284-95.947-0.0747-98.95-0.10296zm60.072-0.81835c0.0976 0 0.17746-0.13045 0.17746-0.28989 0-0.32982-0.30296-0.3882-0.4851-0.0935-0.06676 0.10803-0.20235 0.14638-0.3013 0.0852-0.09895-0.0611-0.17991 0.0337-0.17991 0.21079 0 0.2142 0.10233 0.2827 0.3057 0.20466 0.16813-0.0645 0.38555-0.1173 0.48315-0.1173zm2.8831-0.51311c0-0.49882-0.01063-0.50348-0.38197-0.16743-0.40549 0.36696-0.35781 0.68054 0.10348 0.68054 0.17254 0 0.27849-0.19519 0.27849-0.51311zm1.9326 0.35679c0-0.25456-0.56692-0.92743-0.57364-0.68085-0.0034 0.12418-0.05893 0.36334-0.12345 0.53147-0.0841 0.21915-2e-3 0.3057 0.28989 0.3057 0.22396 0 0.4072-0.0703 0.4072-0.15632zm1.3528-0.45567c0-0.70372-0.08436-0.67822-0.26639 0.0805-0.07569 0.3155-0.04747 0.53147 0.06944 0.53147 0.10832 0 0.19694-0.2754 0.19694-0.612zm35.947 0.3221c0-0.15944-0.087-0.28989-0.19326-0.28989-0.10629 0-0.19326 0.13045-0.19326 0.28989s0.087 0.28989 0.19326 0.28989c0.10629 0 0.19326-0.13045 0.19326-0.28989zm2.8506 0.0483c-0.0443-0.13287-0.19649-0.24158-0.33821-0.24158-0.14173 0-0.29392 0.10871-0.33821 0.24158-0.0479 0.14371 0.0891 0.24158 0.33821 0.24158 0.24909 0 0.38611-0.0979 0.33821-0.24158zm3.7203-0.0483c0-0.15944-0.087-0.28989-0.19327-0.28989-0.10629 0-0.19326 0.13045-0.19326 0.28989s0.087 0.28989 0.19326 0.28989c0.1063 0 0.19327-0.13045 0.19327-0.28989zm1.3528 0c0-0.15944-0.087-0.28989-0.19326-0.28989-0.10629 0-0.19326 0.13045-0.19326 0.28989s0.087 0.28989 0.19326 0.28989c0.1063 0 0.19326-0.13045 0.19326-0.28989zm31.308-0.0759c0-0.44469-0.58401-0.71048-0.80295-0.36543-0.28889 0.45528-0.16819 0.73128 0.3198 0.73128 0.34521 0 0.48315-0.10446 0.48315-0.36585zm10.079 0.0759c0-0.10098-0.0935-0.21476-0.20776-0.25285-0.11427-0.0381-0.20776 0.0757-0.20776 0.25285 0 0.17716 0.0935 0.29094 0.20776 0.25285 0.11427-0.0381 0.20776-0.15187 0.20776-0.25285zm5.7688-0.11274c0-0.47098-0.4516-0.40441-0.54563 0.0804-0.037 0.19071 0.0616 0.3222 0.24157 0.3222 0.17928 0 0.30406-0.16524 0.30406-0.40263zm-114.02-0.37041c0-0.31889-0.08697-0.57979-0.19326-0.57979-0.10629 0-0.19326 0.2609-0.19326 0.57979 0 0.31888 0.08697 0.57978 0.19326 0.57978 0.10629 0 0.19326-0.2609 0.19326-0.57978zm3.3101 0.43483c0.12364-0.72659 0.08172-1.0146-0.14768-1.0146-0.16394 0-0.2635 0.21907-0.2635 0.57979 0 0.31888 0.08697 0.57978 0.19326 0.57978 0.10629 0 0.20436-0.0652 0.21793-0.14495zm93.195-0.88438c0.14846-0.10673 0.12598-0.13383-0.0678-0.0817-0.16354 0.044-0.30326 0.32414-0.32055 0.64281-0.0264 0.48647-0.017 0.49781 0.0678 0.0817 0.0541-0.26574 0.1984-0.555 0.32055-0.64281zm-107.58 0.11502c-0.049-0.18804-0.09231-0.081-0.09625 0.2379-0.0039 0.31888 0.03615 0.47272 0.08909 0.34188s0.05616-0.39175 0.0072-0.57978zm2.3184-0.19694c-0.04861-0.18602-0.08838-0.0338-0.08838 0.3382 0 0.37203 0.03977 0.52423 0.08838 0.33821 0.04861-0.18601 0.04861-0.4904 0-0.67641zm16.632 0.78477c-0.18601-0.0486-0.4904-0.0486-0.67642 0s-0.03382 0.0884 0.33821 0.0884c0.37203 0 0.52422-0.0398 0.33821-0.0884zm77.353 0.0149c-1.1428-0.14281-3.672-0.16216-3.672-0.0281 0 0.0805 0.9349 0.13335 2.0776 0.11742 1.1427-0.0159 1.8601-0.0561 1.5944-0.0893zm-84.455-0.26824c0-0.1063-0.08697-0.19327-0.19326-0.19327-0.10629 0-0.19326 0.087-0.19326 0.19327 0 0.10629 0.08697 0.19326 0.19326 0.19326 0.10629 0 0.19326-0.087 0.19326-0.19326zm7.1024-0.13322c-0.18601-0.0486-0.4904-0.0486-0.67642 0s-0.03382 0.0884 0.33821 0.0884c0.37203 0 0.52422-0.0398 0.33821-0.0884zm78.932-0.18663c0.81089-0.73385 0.50213-0.83972-2.4489-0.83972h-2.8023v0.47639c0 0.47129 0.0212 0.47706 1.9809 0.53903 1.0895 0.0344 2.1915 0.081 2.4489 0.10339 0.25737 0.0224 0.62698-0.10317 0.82136-0.27909zm-49.315-0.35657c0.20101-0.24219 0.1731-0.28989-0.1696-0.28989-0.23577 0-0.41018 0.12327-0.41018 0.28989 0 0.15944 0.07632 0.28989 0.1696 0.28989 0.09328 0 0.27786-0.13045 0.41018-0.28989zm74.223 0c-0.0152-0.28685-0.44752-0.23415-0.54783 0.0668-0.0542 0.16256 0.0342 0.235 0.23568 0.19326 0.17729-0.0367 0.31776-0.15374 0.31215-0.26003zm-93.869-0.91799c0.16519-0.3986 0.26353-0.72473 0.21853-0.72473-0.128 0-0.67152 1.1133-0.67152 1.3754 0 0.33494 0.10999 0.17693 0.45298-0.65071zm1.1986 0.13862c-0.08056-0.73386-0.29876-0.82334-0.29876-0.12252 0 0.3366 0.07931 0.612 0.17624 0.612 0.09693 0 0.15207-0.22027 0.12251-0.48948zm0.3922-0.62334c-0.20993-0.20992-0.27016 0.0506-0.14559 0.62967l0.12472 0.57978 0.06602-0.54914c0.03631-0.30202 0.016-0.59916-0.04515-0.66031zm0.40334 0.48472c-0.05361-0.13287-0.09748-0.0242-0.09748 0.24158 0 0.26573 0.04387 0.37444 0.09748 0.24157 0.05361-0.13286 0.05361-0.35028 0-0.48315zm0.87649-0.37734c-0.12157-0.12157-0.24011-0.10318-0.33611 0.0521-0.0956 0.15469-0.06901 0.19096 0.07482 0.10207 0.1467-0.0907 0.23214 0.048 0.24944 0.40497 0.02369 0.48857 0.03499 0.49714 0.11299 0.0858 0.04767-0.25142 0.0022-0.54164-0.10114-0.64493zm1.7012 0.86457c-0.15944-0.0607-0.35379-0.20602-0.43188-0.32295-0.0932-0.13955-0.15086-0.11299-0.16781 0.0773-0.01421 0.15945-0.09221 0.029-0.17336-0.28989l-0.14753-0.57978-0.02287 0.6281c-0.02138 0.58738 0.01786 0.62711 0.60523 0.61284 0.34546-8e-3 0.49765-0.0649 0.33821-0.12561zm1.2079 0.0129c-0.13287-0.0536-0.24158-0.30765-0.24158-0.56452 0-0.28631-0.11218-0.46705-0.28989-0.46705-0.15944 0-0.28989 0.0921-0.28989 0.20467s0.08697 0.15092 0.19326 0.0852c0.10629-0.0657 0.19326 0.0524 0.19326 0.26238 0 0.21-0.10871 0.42569-0.24158 0.4793-0.13287 0.0536 0.01933 0.0975 0.33821 0.0975 0.31888 0 0.47107-0.0439 0.33821-0.0975zm0.91799-0.45178c0-0.31889-0.09711-0.57979-0.21579-0.57979-0.12515 0-0.17754 0.20011-0.12472 0.47641 0.05009 0.26203-5e-3 0.51607-0.12242 0.56453-0.11742 0.0485-0.0613 0.095 0.12472 0.10337 0.25034 0.0113 0.33821-0.13538 0.33821-0.56452zm-6.1604-0.2448c-0.19087-0.18945-0.21307-0.16725-0.10819 0.10819 0.07258 0.19059 0.18064 0.29785 0.24014 0.23835 0.0595-0.0595 1.24e-4 -0.21545-0.13196-0.34654zm4.2278-0.14173c0-0.10629-0.08697-0.19326-0.19326-0.19326-0.10629 0-0.19326 0.087-0.19326 0.19326 0 0.1063 0.08697 0.19326 0.19326 0.19326 0.10629 0 0.19326-0.087 0.19326-0.19326zm26.041 2.5747c-0.77504-0.0705-0.96327-0.1701-1.205-0.63758-0.15757-0.30471-0.21401-0.58258-0.12542-0.61749 0.0886-0.0349 0.21782-0.58526 0.28717-1.223l0.12608-1.1596-0.37344 0.48026c-0.57585 0.74056-0.67537 0.33448-0.11897-0.48543 0.27131-0.39979 0.59376-1.0622 0.71656-1.4721 0.1228-0.40987 0.31822-0.74655 0.43426-0.74818 0.11604-1e-3 0.0896-0.0798-0.0588-0.17376-0.14836-0.0939-0.21631-0.31002-0.15101-0.48019 0.21606-0.56306 0.46572-0.32166 0.56338 0.54473 0.10767 0.95525 1.073 3.1512 1.81 4.1174 0.72622 0.95211 1.7511 0.78448 2.1096-0.34505 0.21185-0.66748 0.57604-0.29648 0.57604 0.58682 0 1.1738-0.5844 1.5837-2.3498 1.6483-0.72721 0.0266-1.7355 0.0108-2.2407-0.0352zm-0.057-1.6727c-0.0622-0.24797-0.17822-1.0524-0.25776-1.7877l-0.1446-1.3368-0.15449 1.3002c-0.17567 1.4784-0.0425 2.2752 0.38012 2.2752 0.20717 0 0.2576-0.12864 0.17673-0.45084zm1.3497-0.30612c-0.27551-0.41633-0.7177-1.2643-0.98265-1.8843-0.49761-1.1646-0.4943-1.1102 0.0756 1.239 0.31965 1.3178 0.371 1.4001 0.87382 1.4012l0.53421 1e-3 -0.50093-0.75696zm-83.573 1.3404c0-0.10427 0.21742-0.24415 0.48315-0.31085 0.34688-0.0871 0.48315-0.25162 0.48315-0.58346 0-0.59933 0.31071-0.59732 0.46138 3e-3 0.06422 0.25586 0.16992 0.60373 0.23489 0.77304 0.09753 0.25417-0.03712 0.30785-0.77222 0.30785-0.48969 0-0.89035-0.0853-0.89035-0.18958zm-1.0498-1.6934c0.36484-0.92934 0.66335-1.8042 0.66335-1.944 0-0.67507 0.39063 0.11901 0.69624 1.4153 0.2703 1.1466 0.29226 1.5005 0.10473 1.688-0.18753 0.18754-0.27549 0.17684-0.41953-0.051-0.14575-0.23053-0.18285-0.20117-0.18521 0.14657-0.0026 0.37672-0.10453 0.43483-0.76294 0.43483h-0.75998zm0.79537 0.10738c-0.06169-0.15417-0.10749-0.10838-0.11676 0.11676-0.0084 0.20373 0.03729 0.31788 0.1015 0.25366 0.06422-0.0642 0.07109-0.23091 0.01526-0.37042zm133.54-1.3468c-0.51704-0.28935-0.38117-0.47222 0.35082-0.47222 0.75764 0 0.84202 0.11282 0.32559 0.43533-0.22939 0.14326-0.46352 0.15603-0.67641 0.0369zm-108.94-1.0488c0-0.1683 0.10327-0.27157 0.2295-0.2295 0.35835 0.11945 0.41778 0.5355 0.0765 0.5355-0.1683 0-0.306-0.1377-0.306-0.306zm106.81-0.21104c-0.0699-0.0699-0.12717-0.24312-0.12717-0.38485 0-0.2879 0.49821-0.35277 0.66289-0.0863 0.13152 0.21281-0.36095 0.64594-0.53572 0.47117z"
       fill="#98bec5" /><path
       id="path16071"
       d="m108.02 87.196c-0.0529-0.0026-0.12383-7.04e-4 -0.21291 0.0047-0.27183 0.01635-0.45382 0.09495-0.40462 0.17467 0.11633 0.18842 0.29318 0.17882 0.62786-0.03307 0.14665-0.09285 0.14833-0.13834-0.0103-0.14624zm8.8082 2.8567c-0.38962 0.02058-0.85576 0.21194-0.85576 0.40876 0 0.1734 0.0558 0.1726 0.23202-0.0036 0.12756-0.12755 0.45346-0.23913 0.72451-0.24753s0.38082-0.06011 0.24339-0.11524c-0.0928-0.03725-0.21429-0.04923-0.34416-0.04237zm-2.4996 1.3369c-0.28548-4e-3 -0.71375 0.11621-0.96532 0.31781l-0.38654 0.30954 0.38654-0.14883c0.21259-0.082 0.5825-0.15453 0.82166-0.16123s0.4346-0.08188 0.4346-0.16692c0-0.10084-0.11965-0.148-0.29094-0.15038zm-3.5879 0.85369c-0.10088-0.0038-0.24152 0.01025-0.42116 0.04444-0.77588 0.14769-0.92896 0.25735-0.35915 0.25735 0.25727 0 0.37901 0.0831 0.30231 0.20722-0.0705 0.11414 0.0543 0.0932 0.27802-0.04651 0.44587-0.27845 0.50262-0.4511 0.19998-0.4625zm-8.4512 3.1145c-0.22332-0.01829-0.17656 0.03515 0.0651 0.21187 0.41617 0.3043 0.60557 0.32647 0.75241 0.08888 0.0583-0.09439-0.16706-0.2114-0.50126-0.26045-0.13725-0.02014-0.24182-0.03421-0.31626-0.04031zm20.589 6.1888c-0.0407 3e-3 -0.0884 0.0114-0.14159 0.0253-0.21273 0.0556-0.38654 0.13438-0.38654 0.17518 0 0.1525 0.56105 0.0675 0.66508-0.10077 0.0447-0.0723-0.0147-0.10931-0.13695-0.0997zm11.824 0.8785c-0.0671-3e-3 -0.14368 9e-3 -0.21343 0.0372-0.15418 0.0617-0.10835 0.10779 0.11679 0.11679 0.20375 8e-3 0.31793-0.0371 0.25373-0.10128-0.0321-0.0321-0.09-0.05-0.15709-0.0527zm-34.694 0.60513c-0.05993-6e-3 -0.14587-5e-3 -0.25683 3e-3 -0.20522 0.0155-0.33289 0.093-0.2837 0.1726s0.21758 0.0956 0.37362 0.0357c0.29508-0.11321 0.34669-0.19275 0.16691-0.21135zm-9.4728 1.5053c-0.06061 0.0111-0.14935 0.0327-0.26717 0.0615-0.26573 0.0649-0.61364 0.1205-0.77308 0.1235-0.25768 5e-3 -0.25768 0.0268 0 0.19327 0.37585 0.2429 0.41209 0.23742 0.86972-0.12712 0.28277-0.22525 0.35235-0.28438 0.17053-0.25115zm-40.466 0.18552c-0.0054 0.0141 0.052 0.0917 0.16898 0.24081 0.14588 0.18602 0.28759 0.33848 0.31471 0.33848s0.16414-0.15246 0.30489-0.33848c0.21612-0.28562 0.21457-0.30142-0.01033-0.10128-0.21029 0.18713-0.33033 0.18713-0.57051 0-0.13414-0.10452-0.2023-0.15368-0.20774-0.13953zm113.36 1.1591c-0.0469 0-0.13894 0.0865-0.20464 0.19276s-0.0273 0.19327 0.0853 0.19327c0.11257 0 0.20464-0.087 0.20464-0.19327 0-0.10626-0.0384-0.19276-0.0853-0.19276zm-59.059 2.1254c-0.103 0-0.18707 0.13047-0.18707 0.28991 0 0.15945 0.0342 0.2899 0.076 0.2899s0.12586-0.13045 0.18706-0.2899c0.0612-0.15944 0.027-0.28991-0.076-0.28991zm-30.674 0.40205c-0.20204 9e-3 -0.24095 0.0544-0.09664 0.11265 0.13287 0.0536 0.24185 0.22046 0.24185 0.37104 1e-6 0.15059 0.04348 0.27388 0.09663 0.27388s0.09664-0.17395 0.09664-0.38654c0-0.24509-0.12403-0.38103-0.33848-0.37103zm30.598 0.59686c-0.16367 4e-3 -0.32535 0.24103-0.46664 0.71262-0.1228 0.40988-0.44296 1.0842-0.71159 1.4981l-0.48834 0.75241 0.58963-0.67542c0.32438-0.3715 0.68109-1.0131 0.7922-1.4258 0.22757-0.84514 0.40363-0.76098 0.75654 0.36174 0.33406 1.0628 1.0636 2.4847 1.4314 2.79 0.47713 0.39598 0.36174 0.59221-0.34778 0.59221h-0.65268l-0.44545-1.8846c-0.47494-2.0077-0.74356-1.986-0.39222 0.0315 0.27901 1.6022 0.2728 1.6598-0.17622 1.6598-0.34335 0-0.38864-0.13533-0.40514-1.2082l-0.0186-1.2077-0.24908 1.3529c-0.21054 1.1421-0.20722 1.4204 0.0227 1.7875 0.25443 0.40613 0.40665 0.43512 2.3068 0.43512 2.3382 0 3.0722-0.25204 3.2628-1.1198 0.0661-0.3006 0.0384-0.75873-0.061-1.018l-0.18035-0.47128-0.20464 0.52141c-0.26017 0.66317-1.0197 1.1702-1.4991 1.001-0.20099-0.071-0.52063-0.31213-0.71055-0.53588-0.44565-0.52505-1.3716-2.3274-1.6728-3.2572-0.15075-0.46526-0.31641-0.696-0.48007-0.69246zm49.267 0.35398c-0.17196 0-0.25897 0.087-0.19327 0.19327 0.0657 0.10626 0.15267 0.19327 0.19327 0.19327s0.12757-0.087 0.19327-0.19327c0.0657-0.10626-0.0213-0.19327-0.19327-0.19327zm-74.07 0.19327c-0.15888 0 0.01083 0.33613 0.42478 0.84129 0.37914 0.4627 0.68936 0.90574 0.68936 0.98444s-1.5935 0.0802-3.5414 4e-3l-3.5414-0.13901-1.8991 1.957c-0.68933 0.71039-1.3234 1.3086-1.7322 1.6516h-0.6227c-0.04579-0.23679-0.06563-0.62304-0.06563-1.2402 0-0.95932 0.07765-1.5462 0.20464-1.5462 0.11257 0 0.14996-0.0883 0.0832-0.19637-0.2975-0.48137-0.48111 0.15129-0.48111 1.6573v1.3255h-4.2514v-0.91209c0-0.68929-0.10073-1.3177-0.23203-1.449-0.16017-0.16012-1.1468-0.23203-3.189-0.23203h-2.9569v-0.67644c0-0.47242-0.08744-0.67645-0.2899-0.67645-0.20246 0-0.2899 0.20403-0.2899 0.67645v0.67644h-3.0753l-0.05684 1.401-0.04858 1.1922h-3.9698v-0.83147c0-1.772 0.01056-1.7616-1.8567-1.7616h-1.6221v-0.77308c0-0.42517-0.08698-0.77308-0.19327-0.77308-0.10629 0-0.19327 0.34791-0.19327 0.77308v0.77308l-3.5755-0.00103 0.06356 1.4438 0.05064 1.1503h-19.564c-0.15566-0.0484-0.36912-0.0988-0.601-0.13539-0.52035-0.0821-0.6704-0.0665-0.72295 0.13539h-0.1912c-0.09269-0.22527-0.2935-0.27388-0.96325-0.27388-0.63033 0-0.94094 0.0847-1.0304 0.27388h-13.099v1.0227h197.87v-0.5271c8e-4 -4.1e-4 0.0439-6.2e-4 0.0439-1e-3 0-2e-3 -0.0392-4e-3 -0.0439-7e-3v-0.48783h-33.465c-0.0731-0.13048-0.11834-0.31019-0.11834-0.52968 0-0.45641-0.21868-0.82306-0.91054-1.5255l-0.91105-0.92449h-6.6818v2.9797h-6.3112l-0.0667-0.46715c-0.0873-0.61123-0.15652-0.67716-0.71882-0.68316-0.40736-4e-3 -0.81135-0.18767-1.17-0.53124-0.3013-0.28867-0.65848-0.52503-0.79323-0.52503-0.17401 0-0.23075-0.30693-0.19585-1.0599 0.027-0.58303-0.01-1.1197-0.0822-1.1922-0.0724-0.0725-0.13177 0.40492-0.13177 1.0604v1.1917l-0.82166 0.016c-0.76466 0.015-0.88863 0.0981-1.7999 1.2077l-0.80718 0.98288h-5.3919l0.0388-0.1235c0.0759-0.24221 0.17538-0.54037 0.22118-0.66249 0.15271-0.40712-0.2416-0.4318-1.0583-0.0661-0.84076 0.37643-1.2448 0.22408-0.80616-0.30437 0.13045-0.15736 0.19291-0.33058 0.13901-0.38448s-0.24759 0.13071-0.43046 0.4098c-0.22082 0.33701-0.45235 0.47603-0.68988 0.41393-0.19966-0.0522-0.40294 0.0247-0.46044 0.17466-0.11057 0.28811-2.3952 0.38273-3.5698 0.1478-0.55174-0.11034-0.60409-0.18558-0.60409-0.86972v-0.74879l1.7875-0.0403 1.788-0.0398-1.788-0.0641-1.7875-0.0636-0.0367-1.1038-0.0362-1.1043-0.0698 1.1116-0.0698 1.111-3.1693 0.0786 1.5942 0.0651c1.6619 0.0679 1.7056 0.0971 1.4676 0.98599-0.12542 0.46845-0.26485 0.47781-1.5777 0.1049-0.42523-0.12079-0.44174-0.0909-0.31678 0.57516l0.0744 0.39687h-11.774v-0.49661c0-0.36042 0.10007-0.55035 0.2899-0.55035 0.15944 0 0.28991-0.087 0.28991-0.19327 0-0.11956-1.0263-0.19327-2.6918-0.19327-1.991 0-2.7076-0.0631-2.7538-0.24185-0.0344-0.13287-0.67574-0.82595-1.4252-1.5405l-1.3627-1.2992-1.4878 1.4966c-1.4342 1.4426-1.4878 1.53-1.4878 2.4107v0.60771h-14.688v-0.46715c0-0.73015-0.03224-0.77308-0.57981-0.77308-0.53376 0-0.57981-0.0537-0.57981-0.67644 0-0.54206-0.07488-0.67645-0.37724-0.67645-0.32749 0-0.38537-0.15927-0.43822-1.2077l-0.06098-1.2082-0.16743 1.2149-0.16743 1.2154-1.665-0.0558-1.6655-0.0553-0.09922-0.67645c-0.07749-0.52781-0.13032-0.5987-0.24133-0.32246-0.07825 0.1947-0.14263 0.52726-0.14263 0.73897 0 0.3591-0.10983 0.38076-1.6428 0.32246l-1.6433-0.0625 5.17e-4 0.7245c4.11e-4 0.66353-0.04512 0.72502-0.5364 0.72502-0.50945 0-0.53301 0.0391-0.46302 0.77308l0.04444 0.46715h-4.8597l-0.0124-0.22582c-0.01633-0.29231-0.04032-0.7626-0.05323-1.0449-0.02632-0.57578-2.8981-4.0282-3.3507-4.0282zm-32.652 0.26665c-0.02032 0.0203-0.03411 0.0879-0.03876 0.20051-0.0084 0.20376 0.03707 0.31793 0.10129 0.25373 0.06421-0.0642 0.07133-0.23101 0.0155-0.37052-0.03085-0.0771-0.05772-0.10404-0.07803-0.0837zm-24.873 0.54261c-0.1199-0.0517-0.11222 0.59123 0.11524 1.8257 0.15016 0.81493 0.31756 1.2304 0.49609 1.2304 0.16691 0 0.23044-0.12903 0.16692-0.33848-0.05641-0.18601-0.1961-0.76528-0.31058-1.2873-0.20392-0.92987-0.37442-1.3902-0.46767-1.4304zm134.46 0.16329c-0.0825-0.0116-0.2439 0.063-0.41445 0.23358-0.19111 0.19112-0.27704 0.18152-0.42219-0.0481-0.10021-0.1585-0.183-0.19422-0.185-0.0791-2e-3 0.11515 0.0547 0.26758 0.12557 0.33848 0.21559 0.21558 0.58383 0.14463 0.83768-0.16123 0.14456-0.17419 0.14087-0.27214 0.0584-0.28371zm-40.851 0.51315c0.15461-0.0445 0.20723 0.32054 0.20723 1.1121v1.2676h-0.57981c-0.70969 0-0.76389-0.42755-0.19586-1.541 0.26626-0.52192 0.44819-0.80408 0.56844-0.83871zm-93.951 0.35037-0.45992 1.2562c-0.25285 0.69091-0.4607 1.2777-0.4625 1.3043s0.29266 0.0486 0.65474 0.0486c0.52421 0 0.64466-0.0692 0.59014-0.33848-0.03766-0.18601-0.12554-0.77284-0.19534-1.3043zm52.347 0.12402c0.04237-4e-3 0.06779 0.0284 0.06821 0.10645 4.87e-4 0.086 1.4945 0.17276 3.3197 0.19276 2.7342 0.03 3.3472 0.0879 3.482 0.32866 0.08995 0.16072 0.30342 0.4321 0.47439 0.60306 0.28562 0.28562 0.11259 0.30605-2.1306 0.25115-1.3427-0.0329-2.4409 7e-3 -2.4407 0.0889 4.6e-4 0.19479-2.151 0.0741-2.4975-0.14004-0.19384-0.11983-0.22418-0.0945-0.10955 0.091 0.11472 0.18559 0.07048 0.22191-0.16175 0.13281-0.34456-0.13222-1.1575 0.57487-0.98392 0.85576 0.05439 0.088 0.0049 0.33557-0.11007 0.55035-0.06381 0.11923-0.1813 0.21151-0.31626 0.27802h-0.79065c-0.03262-0.0374-0.05478-0.0819-0.05478-0.13952 0-0.13859 0.30425-0.54668 0.67593-0.90692 0.43726-0.42382 0.5986-0.70232 0.45734-0.78962-0.15369-0.095-0.11952-0.27026 0.11524-0.59118l0.33331-0.45578-0.11266 0.48317c-0.08553 0.36723-0.04465 0.33594 0.17002-0.13022 0.20673-0.44895 0.48526-0.79534 0.61236-0.80874zm19.215 1.3255c0.27658 0 0.38056 0.10398 0.3359 0.3359-0.09702 0.50378-0.73691 0.55985-0.73691 0.0646 0-0.27657 0.12444-0.40049 0.40101-0.40049zm74.255 0.0687c0.18578 0.0124 0.3297 0.16092 0.3297 0.40514 0 0.36924-0.5133 0.51521-0.76119 0.21653-0.15428-0.18585-0.13479-0.31516 0.0739-0.48834 0.11961-0.0993 0.24614-0.14075 0.3576-0.13333zm-143.98 0.14056c-0.03732 6e-3 -0.07312 0.11144-0.14004 0.32194-0.08052 0.25325-0.29407 0.43512-0.5116 0.43512-0.20542 0-0.37362 0.087-0.37362 0.19327 0 0.10626 0.30442 0.19327 0.67644 0.19327 0.6978 0 0.78119-0.14563 0.49816-0.86972-0.07314-0.18711-0.11203-0.28011-0.14934-0.27388zm90.731 0.0956c0.1386-0.01 0.23616 0.0275 0.23616 0.0997 0 0.0964-0.17396 0.17518-0.38654 0.17518-0.21259 0-0.38654-0.0336-0.38654-0.0744 0-0.0407 0.17395-0.11959 0.38654-0.17519 0.0531-0.0139 0.10417-0.0221 0.15038-0.0253zm-69.905 0.0816c0.55151 0 0.58765 0.0428 0.53123 0.62787-0.04436 0.46005-0.16582 0.64331-0.45475 0.68471-0.51683 0.074-0.66869-0.0998-0.66869-0.76533 0-0.48207 0.07098-0.54725 0.59221-0.54725zm2.3068 0c0.53376 0 0.57981 0.0537 0.57981 0.67644 0 0.62271-0.04604 0.67645-0.57981 0.67645-0.53376 0-0.57981-0.0537-0.57981-0.67645 0-0.62271 0.04604-0.67644 0.57981-0.67644zm1.5462 0h1.9327v1.5462h-1.9327v-0.77308zm7.3437 0h1.9327v1.5462h-1.9327v-0.77308zm22.86 0.0357c0.09341 2e-3 0.20648 0.0213 0.31678 0.0563 0.30332 0.0963 0.40101 0.28896 0.40101 0.79065 0 0.4845-0.08504 0.66353-0.31523 0.66353-0.25227 0-0.29302-0.13504-0.20516-0.67645 0.08722-0.5375 0.04631-0.67644-0.19999-0.67644-0.17047 0-0.2587-0.0514-0.19585-0.11421 0.03143-0.0314 0.10503-0.0458 0.19844-0.0434zm74.13 0.0119c0.0798-5e-3 0.15034 0.0168 0.19999 0.0708 0.0645 0.0702 9e-3 0.16654-0.12403 0.21394-0.13287 0.0474-0.24184 0.32574-0.24184 0.61805 0 0.70705 0.55968 0.71018 0.80563 5e-3 0.24484-0.70234 0.93476-0.57011 0.93276 0.1788-7.5e-4 0.3252-0.0388 0.44289-0.32194 0.49299h-1.0547c-0.66252-0.11655-1.0174-0.50294-0.85473-1.0154 0.0961-0.30265 0.41935-0.55012 0.65888-0.56379zm-92.545 0.0491h1.063l0.05684 0.67697 0.05736 0.67696-1.0733 0.0589c-1.1554 0.0633-1.354-0.0918-1.2304-0.96377 0.05774-0.4076 0.16148-0.44907 1.1265-0.44907zm1.9327 0.0966h2.3192v1.3529h-2.3192v-0.67645zm-17.259 0.0698c-0.01723-0.0146-0.04061 0.0446-0.07442 0.17415-0.04886 0.18727-0.16943 0.29066-0.26768 0.22996-0.09826-0.0607-0.1788-0.018-0.1788 0.0946 0 0.11257 0.13046 0.20464 0.2899 0.20464 0.17843 0 0.28148-0.16748 0.26768-0.43512-0.0085-0.16547-0.01946-0.25359-0.03669-0.2682zm11.44 0.12351c-0.19968 0-0.23282 0.64723-0.04289 0.83716 0.07086 0.0708 0.35328 0.12919 0.62787 0.12919 0.4037 0 0.4992-0.0925 0.4992-0.48318 0-0.32091-0.10726-0.48317-0.31988-0.48317-0.23166 0-0.29043 0.11394-0.21239 0.41238 0.078 0.29831 0.03314 0.38599-0.16278 0.31729-0.14898-0.0522-0.25919-0.23781-0.24443-0.41238s-0.05021-0.31729-0.14469-0.31729zm4.2245 0c-0.07972 0-0.14469 0.21743-0.14469 0.48317 0 0.26573 0.06497 0.48318 0.14469 0.48318 0.07972 0 0.14521-0.21745 0.14521-0.48318 0-0.26574-0.06549-0.48317-0.14521-0.48317zm15.31 0.0295c0.15523-0.0376 0.19999 0.13646 0.19999 0.55035 0 0.48958-0.07518 0.57981-0.48318 0.57981-0.57147 0-0.63108-0.38601-0.12971-0.83974 0.18684-0.16909 0.31976-0.26784 0.41289-0.29042zm-14.821 0.0434c-0.02032 0.0203-0.03411 0.0884-0.03876 0.20102-0.0084 0.20376 0.03758 0.31794 0.1018 0.25374 0.06421-0.0642 0.07082-0.23101 0.01499-0.37052-0.03084-0.0771-0.05772-0.10456-0.07803-0.0842zm16.386 0.17725c0.17784-0.0152 0.33571 0.16346 0.42892 0.51987 0.08487 0.32453 0.0081 0.38964-0.45992 0.38964-0.6236 0-0.68676-0.14133-0.30076-0.66921 0.11142-0.15239 0.22506-0.23116 0.33176-0.2403zm92.463 0.13643c0.16105 0 0.28991 0.17181 0.28991 0.38654 0 0.21474-0.12886 0.38654-0.28991 0.38654s-0.2899-0.1718-0.2899-0.38654c0-0.21473 0.12885-0.38654 0.2899-0.38654zm-48.464 0.0357c0.25035-0.0331 0.49143 0.31952 0.37311 0.62786-0.0284 0.074-0.0726 0.13741-0.11886 0.19017h-0.33641c-0.14647-0.21417-0.19736-0.67211-0.0248-0.77876 0.0351-0.0217 0.0712-0.0345 0.10697-0.0393zm-61.7 0.01c-0.05258-0.02-0.08813 0.0511-0.0894 0.19586-0.0016 0.18801 0.13979 0.33848 0.31884 0.33848 0.17715 0 0.24348-0.0655 0.14728-0.14521-0.0962-0.0797-0.23951-0.23168-0.31884-0.33797-0.02058-0.0276-0.04035-0.0445-0.05788-0.0512zm63.06 7e-3c0.12455-0.0183 0.23752 0.0833 0.23771 0.31833-1.9e-4 0.23709-0.12523 0.40256-0.30437 0.40256-0.17997 0-0.27833-0.13175-0.24133-0.32246 0.047-0.24241 0.18334-0.38006 0.30799-0.39843zm41.447 0c0.12466 0.0184 0.261 0.15601 0.308 0.39843 0.037 0.1907-0.0619 0.32246-0.24185 0.32246-0.17928 0-0.30386-0.16517-0.30386-0.40256 0-0.23551 0.11305-0.3367 0.23771-0.31833zm-46.62 0.14108c0.25768 0 0.38654 0.12885 0.38654 0.38654 0 0.12025-0.0307 0.20975-0.0868 0.27388h-0.59945c-0.0561-0.0641-0.0868-0.15363-0.0868-0.27388 0-0.25769 0.12886-0.38654 0.38654-0.38654zm-68.173 0.0191c-0.45175-0.0106-0.82114 0.0678-0.82114 0.17415 0 0.22274 0.46412 0.22274 1.1596 0 0.41044-0.1314 0.35927-0.15775-0.33848-0.17415zm65.417 0.0269c0.0294-0.01 0.0628-0.01 0.0987 2e-3 0.13286 0.0443 0.24133 0.19675 0.24133 0.33848 0 0.10083-0.0563 0.20508-0.13591 0.27388h-0.28318c-0.0402-0.0598-0.0641-0.15298-0.0641-0.27388 0-0.18683 0.055-0.31055 0.14314-0.34055z"
       fill="#0f343e" /></g></svg>
